<svg xmlns="http://www.w3.org/2000/svg" width="244" height="48" viewBox="0 0 244 48"><defs><style>.cls-1{fill:#fff;}</style></defs><path class="cls-1" d="M96 15.7c0-6.2-4.8-7.1-7.7-7.1-8 0-11.7 7-11.7 13.6 0 8.1 3.7 12.2 11.1 12.2 3.4 0 6.1-1.1 7.6-1.9v-5.2c-1.9 1.3-4.6 2.3-6.5 2.3-2.8 0-5.3-1.6-5.5-5.5C90 23.7 96 21.7 96 15.7zm-12.8 4.7c.2-6.3 2.9-7.3 4.6-7.3 1.5 0 2.6 1.1 2.6 2.8 0 2.5-2.8 4.2-7.2 4.5zm-61.7 4.9l4.9 3.7c-2.5 3.5-6.4 5.4-10.7 5.4C8.2 34.3 2 28.6 2 17.7 2 7.2 8.2 1 15.8 1c4.2 0 8 1.9 10.6 5.4L21.5 10C20 8 18 6.8 16 6.8c-3.9 0-7 4-7 10.8 0 7.1 3.2 10.8 7 10.8 2.1.1 4.1-1 5.5-3.1zM48.4 9.6h-6.7v14.8c0 2.7-1.2 3.8-3.3 3.8-2.1 0-3.3-1.2-3.3-3.8V9.6h-6.7v10.8c0 2.6 0 5.1.5 6.8.7 2.7 2.7 4.4 6.5 4.8-3.3 2.1-5.7 5-5.7 8.8 0 4 3.1 6.3 8.1 6.3 6.7 0 9.8-4.3 10.4-10.7.3-3.6.3-6.3.3-7.7V9.6zm-6.6 26.6c-.1 2.3-.2 6.2-3.5 6.2-1.7 0-2.8-1.2-2.8-3.1 0-3.1 2.5-6.8 6.4-8.4 0 .6 0 3.1-.1 5.3zm171.5-19.4v16.8h-6.7V18.8c0-1.7-.5-4.3-3.3-4.3-2.3 0-3.6 2.2-3.6 4.8v14.2H193V9.4h6.1V13c1.7-3.3 4.2-4.5 6.9-4.5 4.7.1 7.3 2.9 7.3 8.3zM64.7 8.6c-1.9 0-3.7.6-5.3 1.7V1.6h-6.7v30.9c2.2 1 6.2 1.8 9.4 1.8 7.6 0 11.6-4.9 11.6-14 0-7.6-3.1-11.7-9-11.7zM62.5 30c-.9 0-2.3-.2-3.1-.7-.1-2.4-.1-10.9 0-13.1.1-1.8 1.3-3.1 3.1-3.1 4.5 0 4.5 6.1 4.5 8.4 0 4.2-.5 8.5-4.5 8.5zM224.3 9.5h6v5.2h-6v8.9c0 1.7 0 3.1.4 4 .5 1.3 1.6 1.9 3.2 1.9.8 0 1.8-.4 2.5-.7v4.6c-1.3.6-3.1 1-4.9 1-4.8 0-6.7-1.7-7.4-4.4-.5-1.9-.4-5.8-.4-9.2V1.7h6.7v7.8zm-57.9.9c-3.9-1.4-6.8-1.7-9.3-1.7-7.7 0-11.8 5.2-11.8 12.4 0 6.2 3.9 10 8.2 10.8-3.3 2.1-5.8 5.1-5.8 8.9 0 4 3.1 6.3 8.1 6.3 6.7 0 9.8-4.3 10.4-10.7.3-3.6.3-6.3.3-7.7V10.4zm-14.5 11.1c0-5.5 2.3-9.9 7.7-7.9v10.8c0 2.7-1.2 3.8-3.3 3.8-2 0-4.4-1.2-4.4-6.7zm8 14.7c-.1 2.3-.2 6.2-3.5 6.2-1.7 0-2.8-1.2-2.8-3.1 0-3.1 2.1-6.5 6.4-8.4-.1.6-.1 3.1-.1 5.3zm29.2-20.5c0-6.2-4.9-7.1-7.7-7.1-8 0-11.7 7-11.7 13.6 0 8.1 3.7 12.2 11.1 12.2 3.4 0 6.1-1.1 7.6-1.9v-5.2c-1.9 1.3-4.6 2.3-6.5 2.3-2.8 0-5.3-1.6-5.5-5.5 6.8-.4 12.7-2.4 12.7-8.4zm-12.8 4.7c.2-6.3 2.9-7.3 4.6-7.3 1.5 0 2.6 1.1 2.6 2.8 0 2.5-2.8 4.2-7.2 4.5zM126.7 1.7l-9.9 31.9h6.4l2.1-6.7h11.1l2.1 6.7h6.5L135 1.7h-8.3zm.2 20l4-12.7 3.9 12.7h-7.9zM111.5 9.1c1.5-.1 2.5.3 3.4.8V16c-1.2-.6-2.2-1.1-3.9-1-2.6.2-4.5 2.5-4.5 5v13.6h-6.7v-24h6v3.8c1-2.4 3.3-4.2 5.7-4.3zm128.4 20.3c.1-.2.2-.4.2-.7 0-.3-.1-.6-.4-.8-.3-.3-.6-.4-1.2-.4h-1.9V32h.7v-2h.7l1.3 2h.8l-1.3-2c.6-.1 1-.4 1.1-.6zm-2.6-1.3h1.3c.2 0 .4.1.6.2.2.1.2.3.2.5s-.1.3-.2.5c-.1.1-.4.2-.7.2h-1.2v-1.4zm1-2.1c-2.1 0-3.7 1.7-3.7 3.7 0 2.1 1.7 3.7 3.7 3.7 2.1 0 3.7-1.7 3.7-3.7s-1.7-3.7-3.7-3.7zm0 6.8c-1.7 0-3.1-1.4-3.1-3.1 0-1.7 1.4-3.1 3.1-3.1 1.7 0 3.1 1.4 3.1 3.1-.1 1.8-1.4 3.1-3.1 3.1z"/></svg>
